# Blender v2.80 (sub 75) OBJ File: ''
# www.blender.org
mtllib 3.mtl
o 003_Cube.025
v -0.027906 -0.056923 -0.010198
v -0.028146 -0.048535 -0.008633
v -0.027818 -0.051049 -0.010178
v -0.030113 -0.055012 0.010315
v -0.031248 0.055555 0.010681
v -0.029652 0.058971 -0.010260
v -0.028053 -0.047599 -0.010146
v 0.031241 -0.062963 -0.010152
v -0.002218 -0.058727 -0.010123
v 0.026659 0.056447 -0.011240
v -0.012524 -0.045797 -0.010132
v -0.008425 -0.050906 -0.010131
v -0.020028 -0.046614 -0.010139
v -0.005764 -0.059523 -0.010149
v -0.026730 -0.052434 -0.010211
v -0.022764 -0.057597 -0.010147
v 0.027839 0.061708 0.010549
v 0.027707 -0.062495 0.010978
v 0.000783 -0.055865 0.010666
v 0.001887 -0.055604 0.010664
v 0.006587 -0.055025 0.010755
v 0.005691 -0.057847 0.010756
v 0.005321 -0.059732 0.010692
v 0.003734 -0.059572 0.010710
v 0.008009 -0.059922 -0.002381
v 0.006972 -0.060198 -0.003153
v 0.008973 -0.060075 0.005119
v 0.011868 -0.060498 0.000621
v -0.008278 -0.058220 0.001662
v -0.006891 -0.058068 0.002662
v -0.021718 -0.057607 -0.009436
v -0.021886 -0.057821 -0.009419
v 0.000018 -0.059654 -0.008172
v 0.001568 -0.059802 -0.007620
v 0.005019 -0.059895 -0.004734
v -0.021735 -0.057439 -0.009268
v -0.008429 -0.058000 0.001379
v -0.008707 -0.058060 0.001236
v -0.015235 -0.057913 -0.004010
v -0.014793 -0.057792 -0.003654
v -0.008903 -0.060725 -0.008387
v -0.011957 -0.064399 -0.010036
v -0.009159 -0.060688 -0.008408
v -0.013621 -0.063401 -0.009557
v -0.011552 -0.061134 -0.008487
v -0.011813 -0.067307 -0.003635
v -0.008998 -0.063907 -0.002778
v -0.008336 -0.063124 -0.001845
v -0.008852 -0.061749 -0.006518
v -0.009109 -0.063600 -0.003156
v -0.013369 -0.066540 -0.003115
v -0.008631 -0.061324 -0.000991
v -0.008841 -0.060716 -0.000728
v -0.008493 -0.062504 -0.001518
v -0.011538 -0.063228 -0.004546
v -0.011454 -0.061163 -0.007746
v 0.012100 -0.062531 -0.000531
v -0.036885 -0.050334 -0.033240
v -0.038232 -0.039297 -0.027280
v -0.043214 -0.055119 -0.025536
v 0.005772 -0.067331 0.007067
v 0.004438 -0.056754 0.013031
v -0.044416 -0.044157 -0.019538
vt 0.873355 0.951228
vt 0.851098 0.929676
vt 0.873078 0.936123
vt 0.582162 0.946790
vt 0.576259 0.662189
vt 0.873355 0.652852
vt 0.872553 0.927225
vt 0.258287 0.334357
vt 0.265381 0.154046
vt 0.565106 0.000000
vt 0.565106 0.303385
vt 0.297480 0.097874
vt 0.284801 0.120215
vt 0.294526 0.057534
vt 0.291082 0.014399
vt 0.262934 0.135008
vt 0.104290 0.759436
vt 0.117367 0.751842
vt 0.117444 0.758702
vt 0.117444 0.783846
vt 0.884458 0.025237
vt 0.884458 0.334357
vt 0.565106 0.326976
vt 0.576058 0.027160
vt 0.431216 0.351152
vt 0.437162 0.351836
vt 0.462481 0.353374
vt 0.576259 0.654004
vt 0.576259 0.334357
vt 0.457669 0.346101
vt 0.455671 0.341247
vt 0.264815 0.353043
vt 0.447135 0.341642
vt 0.258287 0.637579
vt 0.000000 0.258209
vt 0.152746 0.000000
vt 0.161374 0.217046
vt 0.161390 0.229303
vt 0.258287 0.058504
vt 0.204950 0.119951
vt 0.162156 0.169664
vt 0.549025 0.836453
vt 0.422884 0.722887
vt 0.436780 0.714965
vt 0.549025 0.654004
vt 0.550538 0.654004
vt 0.550538 0.689068
vt 0.549762 0.654759
vt 0.177539 0.348798
vt 0.162501 0.309708
vt 0.576259 0.823302
vt 0.554710 0.805873
vt 0.557224 0.794786
vt 0.158612 0.298938
vt 0.160597 0.254068
vt 0.270397 0.800392
vt 0.258287 0.834046
vt 0.268037 0.800377
vt 0.418883 0.723838
vt 0.416911 0.725397
vt 0.343754 0.762962
vt 0.348713 0.760423
vt 0.884283 0.652852
vt 0.576259 0.647895
vt 0.587278 0.345181
vt 0.884283 0.334357
vt 0.554710 0.654004
vt 0.554710 0.682131
vt 0.553691 0.654818
vt 0.592468 0.000000
vt 0.592468 0.011067
vt 0.573737 0.010917
vt 0.565106 0.001247
vt 0.129607 0.808404
vt 0.147184 0.820431
vt 0.151396 0.833627
vt 0.150415 0.767203
vt 0.147077 0.815026
vt 0.132246 0.717343
vt 0.151396 0.740592
vt 0.037297 0.813050
vt 0.046786 0.807257
vt 0.057404 0.846377
vt 0.055663 0.849806
vt 0.059387 0.839271
vt 0.060996 0.834907
vt 0.151396 0.754282
vt 0.175904 0.717343
vt 0.166575 0.772945
vt 0.175086 0.817661
vt 0.165222 0.844668
vt 0.175904 0.828153
vt 0.051022 0.722460
vt 0.060996 0.717343
vt 0.077551 0.832732
vt 0.085149 0.717343
vt 0.086840 0.762255
vt 0.087156 0.787027
vt 0.087591 0.799306
vt 0.087591 0.846694
vt 1.000000 0.422688
vt 0.965259 0.062545
vt 1.000000 0.044801
vt 0.942013 0.354544
vt 0.942374 0.074213
vt 0.205047 0.334960
vt 0.216029 0.341746
vt 0.258287 0.634954
vt 0.203953 0.334062
vt 0.153684 0.183424
vt 0.220325 0.332141
vt 0.241334 0.291703
vt 0.238618 0.268187
vt 0.215740 0.310222
vt 0.232978 0.102372
vt 0.240521 0.263115
vt 0.178304 0.717343
vt 0.160669 0.339912
vt 0.241094 0.749332
vt 0.253415 0.896518
vt 0.253794 0.898978
vt 0.258216 0.975556
vt 0.252474 0.876557
vt 0.253544 0.892536
vt 0.258287 0.981150
vt 0.206262 0.793193
vt 0.252194 0.717343
vt 0.258287 0.755808
vt 0.884790 0.094034
vt 0.942013 0.025237
vt 0.904935 0.257134
vt 0.898719 0.254415
vt 0.077551 0.878272
vt 0.064237 0.739960
vt 0.069712 0.734012
vt 0.060996 0.742563
vt 0.549762 0.654004
vt 0.549762 0.848410
vt 0.549025 0.790268
vt 0.121721 0.801631
vt 0.128606 0.719544
vt 0.129607 0.717343
vt 0.129607 0.859408
vt 0.566142 0.025237
vt 0.565106 0.023092
vt 0.566142 0.022776
vt 0.576259 0.654004
vt 0.073155 0.730486
vt 0.077551 0.717343
vt 0.942013 0.368966
vt 0.924878 0.422688
vt 0.926754 0.269302
vt 0.884458 0.272141
vt 0.093188 0.744401
vt 0.117444 0.717343
vt 0.117444 0.751842
vt 0.087591 0.742318
vt 0.957320 0.932996
vt 0.873760 0.853580
vt 0.873355 0.675616
vt 0.884461 0.694092
vt 0.922124 0.672786
vt 0.957320 0.652852
vt 0.000000 0.798618
vt 0.037297 0.717343
vt 0.037297 0.828619
vt 0.000153 0.910408
vt 0.197082 0.914564
vt 0.197563 0.881483
vt 0.206262 0.881228
vt 0.175904 0.827968
vt 0.202125 0.717343
vt 0.200307 0.799452
vt 0.192352 0.880520
vt 0.206262 0.734035
vn -0.9728 0.0153 -0.2312
vn -0.9943 -0.0098 -0.1066
vn -0.9968 -0.0151 -0.0779
vn -0.0117 -0.0067 -0.9999
vn -0.0008 -0.0013 -1.0000
vn 0.0010 -0.0011 -1.0000
vn 0.0021 0.0230 -0.9997
vn 0.0018 -0.0034 -1.0000
vn 0.9985 0.0186 0.0523
vn -0.0158 0.0045 0.9999
vn -0.0093 0.0035 1.0000
vn -0.0122 -0.0100 0.9999
vn -0.0113 0.0027 0.9999
vn -0.0024 -0.0008 1.0000
vn -0.1233 -0.9922 0.0196
vn -0.1261 -0.9920 -0.0065
vn -0.0035 -0.9829 -0.1842
vn -0.0544 -0.9732 0.2236
vn -0.1334 -0.9910 -0.0091
vn -0.1033 0.1585 0.9819
vn -0.0907 -0.9755 0.2004
vn -0.1271 -0.9807 -0.1484
vn -0.1038 -0.9943 0.0248
vn -0.0983 -0.9915 0.0857
vn -0.1237 -0.9916 -0.0371
vn -0.1629 -0.7060 0.6893
vn -0.3097 -0.8229 -0.4763
vn 0.0183 -0.9340 0.3567
vn -0.1186 -0.9893 0.0845
vn -0.1066 -0.9911 0.0803
vn -0.0318 0.9985 -0.0434
vn 0.1232 0.3194 -0.9396
vn -0.0302 0.4315 -0.9016
vn 0.7719 -0.6356 -0.0143
vn 0.7921 -0.5416 -0.2815
vn 0.7840 -0.5584 -0.2712
vn 0.7950 -0.5225 -0.3080
vn 0.0667 -0.4277 0.9014
vn 0.0058 -0.4067 0.9135
vn 0.0820 -0.4490 0.8898
vn -0.8117 0.5424 0.2165
vn -0.7821 0.5426 0.3064
vn -0.7616 0.6358 0.1258
vn -0.5313 -0.7727 -0.3474
vn 0.5719 0.5039 -0.6473
vn 0.5758 0.3955 -0.7155
vn 0.5683 0.4503 -0.6887
vn 0.5705 0.4468 -0.6891
vn 0.1668 -0.7909 -0.5888
vn -0.1370 -0.9893 -0.0494
vn 0.0857 -0.8876 -0.4527
vn 0.0945 -0.8790 -0.4673
vn 0.1027 -0.8747 -0.4737
vn 0.1076 -0.8732 -0.4754
vn 0.1823 -0.7898 -0.5857
vn 0.0782 -0.8859 -0.4572
vn 0.1047 -0.8709 -0.4801
vn 0.1080 -0.8651 -0.4898
vn -0.6056 -0.2503 0.7554
vn -0.4965 -0.6631 0.5601
vn -0.5689 -0.4609 0.6812
vn -0.5012 -0.4721 0.7252
vn -0.5608 -0.4384 0.7024
vn -0.5716 -0.4433 0.6905
vn -0.5681 -0.3898 0.7248
vn -0.5722 -0.4846 0.6616
vn -0.0587 -0.8127 -0.5797
vn -0.5713 -0.4363 0.6951
vn -0.6772 0.4870 -0.5515
vn -0.0845 -0.9765 -0.1985
vn -0.5650 -0.4927 0.6619
vn -0.5723 -0.3812 0.7260
vn -0.5693 -0.4517 0.6869
vn -0.5749 -0.4331 0.6942
vn -0.5736 -0.4819 0.6624
vn -0.1138 0.8399 0.5307
vn -0.1857 0.7902 0.5840
vn -0.0935 0.8711 0.4822
vn -0.1016 0.8714 0.4799
vn -0.8185 0.1983 -0.5393
vn 0.7918 -0.2513 0.5567
vn 0.8121 -0.2124 0.5435
vn 0.8228 -0.1794 0.5392
vn 0.7698 -0.2370 0.5926
vn 0.8120 -0.2149 0.5427
usemtl 003_mtl
s off
f 1/1/1 2/2/1 3/3/1
f 1/1/2 4/4/2 5/5/2 2/2/2
f 5/5/3 6/6/3 7/7/3 2/2/3
f 8/8/4 9/9/4 6/10/4 10/11/4
f 11/12/5 6/10/5 9/9/5 12/13/5
f 13/14/6 7/15/6 6/10/6 11/12/6
f 8/8/7 14/16/7 9/9/7
f 1/17/8 3/18/8 15/19/8 16/20/8
f 10/21/9 17/22/9 18/23/9 8/24/9
f 19/25/10 20/26/10 21/27/10 17/28/10
f 21/27/11 18/29/11 17/28/11
f 22/30/12 23/31/12 18/29/12 21/27/12
f 4/32/13 24/33/13 19/25/13
f 17/28/14 5/34/14 4/32/14 19/25/14
f 8/35/15 18/36/15 25/37/15 26/38/15
f 23/39/16 27/40/16 28/41/16 18/36/16
f 28/41/17 25/37/17 18/36/17
f 4/42/18 29/43/18 30/44/18
f 4/42/19 30/44/19 24/45/19
f 31/46/20 1/47/20 32/48/20
f 14/49/21 8/35/21 33/50/21
f 1/51/22 16/52/22 32/53/22
f 8/35/23 34/54/23 33/50/23
f 8/35/24 35/55/24 34/54/24
f 35/55/25 8/35/25 26/38/25
f 36/56/26 1/57/26 31/58/26
f 29/43/27 4/42/27 37/59/27
f 37/59/28 4/42/28 38/60/28
f 1/57/29 36/56/29 39/61/29 40/62/29
f 1/57/30 40/62/30 38/60/30 4/42/30
f 17/63/31 10/64/31 6/65/31 5/66/31
f 41/67/32 42/68/32 43/69/32
f 42/70/33 44/71/33 45/72/33 43/73/33
f 46/74/34 47/75/34 48/76/34
f 46/74/35 49/77/35 50/78/35 47/75/35
f 46/74/36 42/79/36 49/77/36
f 49/77/37 42/79/37 41/80/37
f 51/81/38 46/82/38 52/83/38 53/84/38
f 52/83/39 46/82/39 54/85/39
f 54/85/40 46/82/40 48/86/40
f 51/87/41 53/88/41 55/89/41
f 56/90/42 44/91/42 51/87/42 55/89/42
f 45/92/43 44/91/43 56/90/43
f 44/93/44 42/94/44 46/82/44 51/81/44
f 57/95/45 34/96/45 35/97/45 26/98/45
f 25/99/46 28/100/46 57/95/46 26/98/46
f 58/101/47 12/102/47 9/103/47
f 58/101/48 59/104/48 11/105/48 12/102/48
f 43/106/49 45/107/49 60/108/49
f 60/108/50 41/109/50 43/106/50
f 60/108/51 14/49/51 57/110/51 41/109/51
f 56/111/52 55/112/52 60/108/52 45/107/52
f 57/110/53 50/113/53 49/114/53
f 57/110/54 61/115/54 47/116/54 50/113/54
f 57/110/55 14/49/55 33/50/55
f 33/50/56 34/54/56 57/110/56
f 57/110/57 49/114/57 41/109/57
f 60/108/58 58/117/58 9/118/58 14/49/58
f 24/119/59 37/120/59 38/121/59 40/122/59
f 24/119/60 30/123/60 29/124/60 37/120/60
f 39/125/61 61/126/61 24/119/61 40/122/61
f 61/126/62 62/127/62 24/119/62
f 62/127/63 19/128/63 24/119/63
f 63/129/64 60/130/64 15/131/64 3/132/64
f 61/133/65 52/134/65 54/135/65
f 61/133/66 53/136/66 52/134/66
f 61/137/67 39/138/67 53/139/67
f 39/140/68 36/141/68 32/142/68 53/143/68
f 36/144/69 31/145/69 32/146/69
f 32/53/70 16/52/70 53/147/70
f 54/135/71 48/148/71 61/133/71
f 48/148/72 47/149/72 61/133/72
f 60/130/73 55/150/73 53/151/73 16/152/73
f 16/152/74 15/131/74 60/130/74
f 3/132/75 2/153/75 63/129/75
f 20/154/76 62/155/76 21/156/76
f 19/157/77 62/155/77 20/154/77
f 59/158/78 63/159/78 2/160/78 7/161/78
f 13/162/79 11/163/79 59/158/79 7/161/79
f 59/164/80 58/165/80 60/166/80 63/167/80
f 62/168/81 22/169/81 21/170/81
f 61/171/82 57/172/82 27/173/82 23/174/82
f 23/174/83 22/169/83 62/168/83
f 23/174/84 62/168/84 61/171/84
f 27/173/85 57/172/85 28/175/85
