# Blender v2.80 (sub 75) OBJ File: ''
# www.blender.org
mtllib 8.mtl
o 008_Cube.044
v -0.028269 -0.060826 -0.004654
v -0.027210 -0.061277 0.004744
v -0.027495 0.061011 0.004814
v -0.027771 0.060338 -0.004721
v 0.028329 -0.061087 -0.004790
v 0.011806 0.003238 -0.004776
v 0.012159 0.011245 -0.004702
v 0.027796 0.057991 -0.004840
v 0.002750 -0.006072 -0.004696
v 0.004146 -0.006174 -0.004717
v 0.013190 -0.009118 -0.004639
v -0.002439 0.012950 -0.004825
v -0.006030 0.012598 -0.004724
v -0.016259 0.013145 -0.004752
v -0.016119 0.005007 -0.004807
v -0.015280 -0.005189 -0.004720
v 0.027848 0.058971 0.004692
v 0.028323 -0.060578 0.004560
v -0.003003 -0.052752 0.004694
v -0.003825 -0.054860 0.004621
v 0.014466 0.001283 0.004727
v 0.016419 -0.013877 0.004744
v 0.015258 0.004894 0.004730
v -0.003725 -0.049242 0.004671
v 0.013472 -0.013626 0.004688
v 0.011832 0.005393 0.004704
v 0.006638 -0.012339 0.004738
v -0.005034 -0.055636 0.004639
v 0.002760 -0.012482 0.004766
v -0.010548 -0.051725 0.004664
v 0.010350 0.006220 0.004633
v 0.003060 -0.011900 0.004680
v -0.010818 -0.050378 0.004751
v 0.009082 0.006698 0.004774
v -0.008704 -0.058779 0.004709
v -0.004845 -0.011462 0.004616
v -0.011903 -0.011583 0.004599
v 0.003231 0.006833 0.004656
v -0.013112 0.007257 0.004758
v -0.011815 -0.006907 0.004730
v -0.004469 0.006532 0.004742
v -0.010369 -0.053949 0.004676
v -0.011081 -0.053367 0.005190
v -0.007412 -0.058131 0.007383
v -0.009363 -0.053244 0.008624
v 0.017901 -0.002985 0.015911
v 0.016656 -0.017024 0.007303
v 0.001891 0.014721 -0.041160
v 0.002417 0.028696 -0.033028
v -0.009070 -0.017008 0.014680
v -0.024690 0.013876 -0.033823
v -0.007251 -0.002643 0.023148
v -0.023150 0.027316 -0.025216
v 0.006424 0.002059 0.010175
v 0.006116 0.001908 0.010427
v 0.004040 0.003619 0.008533
v 0.003451 0.006305 0.005679
v 0.004749 0.005550 0.006758
v 0.008541 0.002153 0.009330
v 0.002799 0.004908 0.007861
v 0.002571 0.005951 0.007330
v 0.007219 0.002990 0.009668
v 0.006069 0.006151 0.009531
v 0.003798 0.004979 0.010698
vt 0.449723 0.220644
vt 0.229633 0.222801
vt 0.226489 0.000000
vt 0.449723 0.000087
vt 0.447723 0.222801
vt 0.330414 0.287270
vt 0.315798 0.285952
vt 0.230309 0.225329
vt 0.347493 0.322448
vt 0.347666 0.317018
vt 0.352974 0.281880
vt 0.312795 0.342654
vt 0.226489 0.441312
vt 0.313474 0.356636
vt 0.312559 0.396382
vt 0.327411 0.395792
vt 0.346027 0.392515
vt 0.447723 0.442790
vt 0.448544 0.445998
vt 0.447723 0.222801
vt 0.665473 0.227171
vt 0.665473 0.446091
vt 0.657966 0.101102
vt 0.661773 0.097934
vt 0.672965 0.222801
vt 0.559746 0.169511
vt 0.587475 0.176927
vt 0.454738 0.222133
vt 0.553173 0.172624
vt 0.651534 0.098350
vt 0.586929 0.165521
vt 0.552172 0.159339
vt 0.584431 0.138949
vt 0.663166 0.093218
vt 0.584607 0.123866
vt 0.655900 0.071822
vt 0.550606 0.153639
vt 0.583525 0.125097
vt 0.653461 0.070725
vt 0.670984 0.222801
vt 0.670984 0.342935
vt 0.665473 0.340585
vt 0.668838 0.078880
vt 0.672965 0.006938
vt 0.582518 0.094435
vt 0.582564 0.067027
vt 0.449723 0.007079
vt 0.549323 0.125975
vt 0.549744 0.148621
vt 0.548187 0.062422
vt 0.574068 0.067327
vt 0.549713 0.095999
vt 0.659969 0.072485
vt 0.447723 0.446938
vt 0.667790 0.446091
vt 0.667790 0.666055
vt 0.448926 0.662749
vt 0.232661 0.665952
vt 0.231797 0.442790
vt 0.447723 0.444413
vt 0.447723 0.667645
vt 0.460975 0.006849
vt 0.449723 0.002609
vt 0.460975 0.000000
vt 0.704733 0.156520
vt 0.704733 0.222801
vt 0.700259 0.157943
vt 0.686783 0.162639
vt 0.712305 0.120692
vt 0.701088 0.092433
vt 0.705747 0.029479
vt 0.712305 0.028498
vt 0.226489 0.598227
vt 0.231733 0.532417
vt 0.231733 0.598860
vt 0.230019 0.532417
vt 0.231385 0.531220
vt 0.226489 0.520664
vt 0.231385 0.442790
vt 0.447723 0.687738
vt 0.540494 0.666055
vt 0.540494 0.692609
vt 0.672965 0.142112
vt 0.676505 0.130274
vt 0.686783 0.194323
vt 0.673891 0.222801
vt 0.686783 0.131499
vt 0.814797 0.916646
vt 0.782861 0.715914
vt 0.786647 0.655819
vt 0.814797 0.654365
vt 0.814797 0.913151
vt 0.821766 0.654365
vt 0.821766 0.913493
vt 0.930198 1.080069
vt 0.894558 0.891253
vt 0.907503 0.227330
vt 0.930198 0.222801
vt 0.892956 0.226324
vt 0.229759 0.600124
vt 0.231733 0.598860
vt 0.231733 0.613946
vt 0.674405 0.589040
vt 0.724832 0.652765
vt 0.710984 0.650843
vt 0.684360 0.650860
vt 0.781362 0.420515
vt 0.755477 0.655529
vt 0.782861 0.657051
vt 0.672965 0.649092
vt 0.114410 0.166244
vt 0.226489 0.000000
vt 0.191397 0.853461
vt 0.185953 0.853655
vt 0.226489 0.857229
vt 0.115985 0.849433
vt 0.965332 0.419919
vt 1.000000 0.222801
vt 0.973853 0.653760
vt 0.965227 0.656473
vt 1.000000 0.654390
vt 0.930198 0.422877
vt 0.965227 0.222801
vt 0.946570 0.902988
vt 0.931661 0.903474
vt 0.965227 0.906088
vt 0.892956 0.654365
vt 0.786459 0.490288
vt 0.823874 0.353637
vt 0.825382 0.359475
vt 0.831087 0.314698
vt 0.859409 0.224227
vt 0.892956 0.222801
vt 0.796115 0.226706
vt 0.801767 0.224713
vt 0.806853 0.227724
vt 0.782861 0.228024
vt 0.829826 0.247759
vt 0.826125 0.273273
vt 0.814623 0.334323
vt 0.829413 0.223776
vt 0.668599 0.371063
vt 0.668599 0.446091
vt 0.667202 0.433569
vt 0.668536 0.395055
vt 0.820153 0.341914
vt 0.615309 0.666055
vt 0.615309 0.696054
vt 0.540494 0.672824
vt 0.667202 0.351215
vt 0.667202 0.446091
vt 0.665473 0.429552
vt 0.000000 0.486822
vt 0.004175 0.006411
vt 0.043846 0.003871
vt 0.057903 0.005601
vt 0.107804 0.664925
vt 0.114410 0.000000
vt 0.114410 0.854706
vt 0.003196 0.687903
vt 0.782860 0.222801
vt 0.678251 0.388130
vt 0.686571 0.030787
vt 0.685060 0.092432
vt 0.672965 0.087821
vt 0.690612 0.006938
vt 0.704733 0.162062
vt 0.715621 0.156240
vt 0.715621 0.222801
vt 0.711059 0.206812
vt 0.701088 0.120692
vt 0.690612 0.093906
vt 0.701088 0.041652
vt 0.700969 0.054147
vt 0.695343 0.003265
vt 0.680073 0.114238
vt 0.679261 0.108286
vt 0.677922 0.095977
vt 0.690612 0.120692
vn -0.9975 0.0009 0.0703
vn -0.0047 0.0002 -1.0000
vn 0.0067 0.0043 -1.0000
vn 0.0078 -0.0056 -1.0000
vn -0.0776 -0.0197 -0.9968
vn -0.0037 0.0002 -1.0000
vn -0.0207 -0.0028 -0.9998
vn 0.0028 0.0013 -1.0000
vn -0.0028 -0.0005 -1.0000
vn -0.0015 0.0001 -1.0000
vn 1.0000 0.0042 -0.0028
vn -0.0039 -0.0328 0.9995
vn 0.0397 0.0062 0.9992
vn 0.0074 -0.0011 1.0000
vn 0.0008 -0.0025 1.0000
vn -0.0071 0.0024 1.0000
vn 0.0062 0.0077 1.0000
vn 0.0065 -0.0036 1.0000
vn 0.0047 0.0158 0.9999
vn 0.0027 -0.0031 1.0000
vn -0.0409 0.0125 0.9991
vn 0.0016 -0.0010 1.0000
vn 0.0976 -0.0335 0.9947
vn 0.0048 0.0166 0.9999
vn 0.0035 -0.0117 0.9999
vn -0.0029 0.0039 1.0000
vn 0.0000 -0.0007 1.0000
vn -0.0433 -0.0112 0.9990
vn 0.0113 -0.0005 0.9999
vn -0.0078 0.0047 1.0000
vn 0.0111 0.0034 0.9999
vn 0.0018 -0.0006 1.0000
vn 0.0009 0.0072 1.0000
vn 0.0126 -0.0196 0.9997
vn 0.0039 -1.0000 0.0029
vn 0.0392 0.9954 -0.0870
vn -0.6169 -0.0610 -0.7846
vn 0.5141 -0.8076 -0.2889
vn 0.6438 -0.7544 -0.1281
vn 0.5228 0.0429 0.8514
vn 0.7411 -0.3096 0.5958
vn -0.7084 0.4133 0.5721
vn -0.3107 0.8527 0.4200
vn -0.8178 -0.4932 0.2965
vn -0.8345 -0.2844 0.4719
vn 0.9731 0.0864 -0.2134
vn 0.9126 -0.1999 -0.3566
vn 0.9675 0.1018 -0.2315
vn 0.9375 -0.0381 -0.3459
vn 0.0019 0.1446 0.9895
vn -0.0570 -0.5705 -0.8193
vn -0.1332 -0.6797 -0.7213
vn -0.1363 -0.8054 -0.5768
vn 0.0163 -0.8786 -0.4773
vn -0.0393 -0.6322 -0.7738
vn -0.1061 -0.8649 -0.4907
vn -0.2702 -0.8424 -0.4663
vn -0.0405 -0.8418 -0.5383
vn -0.9680 -0.0163 0.2506
vn -0.9619 -0.0885 0.2588
vn -0.9596 -0.0489 0.2771
vn -0.9623 -0.0770 0.2607
vn 0.1442 0.8719 0.4680
vn 0.1275 0.8722 0.4722
vn 0.0753 0.8878 0.4540
vn 0.4006 0.8227 0.4033
vn 0.1160 0.8246 0.5537
vn 0.6165 0.7866 0.0349
vn -0.9691 0.1619 -0.1860
vn -0.3403 0.4425 0.8297
vn 0.1683 0.8399 0.5160
vn -0.0278 0.8586 0.5120
vn -0.3670 0.1272 0.9215
vn 0.0043 0.7563 0.6542
vn 0.0427 0.8280 0.5590
vn 0.0883 0.8543 0.5122
vn 0.0965 0.8619 0.4978
vn -0.2590 0.5175 -0.8156
vn 0.2325 -0.5194 0.8223
vn 0.7450 0.4835 -0.4596
vn 0.6985 0.5542 -0.4528
vn -0.7550 -0.5900 0.2862
vn -0.4977 0.7681 0.4030
vn -0.1411 0.9807 0.1351
vn 0.4081 0.2077 0.8890
vn 0.3666 0.1729 0.9142
usemtl 008_mtl
s off
f 1/1/1 2/2/1 3/3/1 4/4/1
f 5/5/2 6/6/2 7/7/2 8/8/2
f 9/9/3 10/10/3 11/11/3 5/5/3
f 7/7/4 12/12/4 8/8/4
f 5/5/5 11/11/5 6/6/5
f 4/13/6 8/8/6 12/12/6 13/14/6
f 14/15/7 15/16/7 16/17/7 4/13/7
f 4/13/8 13/14/8 14/15/8
f 16/17/9 1/18/9 4/13/9
f 1/18/10 16/17/10 9/9/10 5/5/10
f 8/19/11 17/20/11 18/21/11 5/22/11
f 19/23/12 20/24/12 18/25/12
f 21/26/13 22/27/13 18/25/13
f 18/25/14 17/28/14 23/29/14 21/26/14
f 24/30/15 18/25/15 22/27/15 25/31/15
f 17/28/16 26/32/16 23/29/16
f 24/30/17 19/23/17 18/25/17
f 25/31/18 27/33/18 24/30/18
f 20/24/19 28/34/19 18/25/19
f 29/35/20 30/36/20 24/30/20 27/33/20
f 17/28/21 31/37/21 26/32/21
f 32/38/22 33/39/22 30/36/22 29/35/22
f 17/40/23 34/41/23 31/42/23
f 28/34/24 35/43/24 18/25/24
f 35/43/25 2/44/25 18/25/25
f 36/45/26 37/46/26 2/44/26 33/39/26
f 17/28/27 3/47/27 38/48/27 34/49/27
f 39/50/28 3/47/28 37/46/28 40/51/28
f 3/47/29 2/44/29 37/46/29
f 33/39/30 32/38/30 36/45/30
f 41/52/31 38/48/31 3/47/31
f 39/50/32 41/52/32 3/47/32
f 2/44/33 35/43/33 42/53/33
f 2/44/34 42/53/34 33/39/34
f 2/54/35 1/55/35 5/56/35 18/57/35
f 17/58/36 8/59/36 4/60/36 3/61/36
f 42/62/37 43/63/37 33/64/37
f 20/65/38 44/66/38 28/67/38
f 28/67/39 44/66/39 35/68/39
f 45/69/40 44/70/40 19/71/40 24/72/40
f 19/73/41 44/74/41 20/75/41
f 30/76/42 33/77/42 43/78/42 45/79/42
f 45/80/43 24/81/43 30/82/43
f 43/83/44 42/84/44 44/85/44 45/86/44
f 42/84/45 35/87/45 44/85/45
f 46/88/46 47/89/46 22/90/46 21/91/46
f 23/92/47 46/93/47 21/94/47
f 48/95/48 49/96/48 6/97/48 11/98/48
f 49/96/49 7/99/49 6/97/49
f 32/100/50 29/101/50 27/102/50
f 47/103/51 32/104/51 27/105/51
f 27/105/52 25/106/52 47/103/52
f 50/107/53 36/108/53 32/104/53 47/103/53
f 50/107/54 37/109/54 36/108/54
f 47/103/55 25/106/55 22/110/55
f 51/111/56 48/112/56 10/113/56 9/114/56
f 10/113/57 48/112/57 11/115/57
f 9/114/58 16/116/58 51/111/58
f 50/117/59 52/118/59 40/119/59 37/120/59
f 52/118/60 39/121/60 40/119/60
f 53/122/61 51/123/61 15/124/61 14/125/61
f 15/124/62 51/123/62 16/126/62
f 52/127/63 46/128/63 54/129/63 55/130/63
f 56/131/64 41/132/64 52/127/64 55/130/64
f 52/127/65 41/132/65 39/133/65
f 46/128/66 26/134/66 31/135/66 34/136/66
f 46/128/67 23/137/67 26/134/67
f 57/138/68 58/139/68 59/140/68 38/141/68
f 38/142/69 60/143/69 61/144/69 57/145/69
f 59/140/70 46/128/70 38/141/70
f 62/146/71 54/129/71 46/128/71 59/140/71
f 38/147/72 41/148/72 60/149/72
f 41/150/73 56/151/73 60/152/73
f 34/136/74 38/141/74 46/128/74
f 53/153/75 14/154/75 13/155/75
f 12/156/76 49/157/76 53/153/76 13/155/76
f 49/157/77 12/156/77 7/158/77
f 49/157/78 48/159/78 51/160/78 53/153/78
f 52/161/79 50/107/79 47/103/79 46/162/79
f 58/163/80 63/164/80 59/165/80
f 57/166/81 63/164/81 58/163/81
f 55/167/82 64/168/82 60/169/82 56/170/82
f 64/171/83 63/172/83 61/173/83 60/174/83
f 61/173/84 63/172/84 57/175/84
f 55/176/85 54/177/85 62/178/85 64/179/85
f 63/164/86 64/179/86 62/178/86 59/165/86
